<svg width="1220" height="696" viewBox="0 0 1220 696" fill="none" xmlns="http://www.w3.org/2000/svg">
<path d="M1219.78 693.565L1219.71 695.194C1115.95 690.657 1044.26 658.991 994.031 595.559C949.409 539.188 927.649 465.279 904.624 387.058C865.996 255.757 826.045 119.994 674.019 42.7655C563.974 -13.1723 511.659 24.7927 456.31 64.9681C376.063 123.185 285.122 189.195 0.330708 1.95435L1.23462 0.607469C285.087 187.229 375.574 121.542 455.296 63.6893C511.078 23.2033 563.779 -15.0459 674.739 41.3111C743.035 76.039 794.911 126.175 833.526 194.539C867.526 254.965 887.216 321.85 906.254 386.545C951.186 539.354 993.629 683.67 1219.78 693.565Z" fill="#FF1D03"/>
</svg>
