<svg width="1199" height="822" viewBox="0 0 1199 822" fill="none" xmlns="http://www.w3.org/2000/svg">
<path d="M1198.03 820.355L1197.7 821.217C1104.3 786.532 1059.98 708.54 1008.55 618.3C932.096 484.026 836.945 316.943 530.306 243.578C495.746 235.298 467.393 228.659 442.395 222.802C308.064 191.366 308.064 191.366 242.619 147.965C203.104 121.89 137.237 78.1819 0.669104 1.19533L1.1189 0.38563C137.687 77.372 203.699 121.119 243.131 147.211C308.474 190.488 308.475 190.488 442.615 221.912C467.626 227.791 495.956 234.443 530.502 242.701C667.259 275.425 773.636 328.928 855.738 406.316C927.281 473.728 970.895 550.328 1009.37 617.919C1060.63 707.978 1104.96 785.757 1198.03 820.355Z" fill="#FF1D03"/>
</svg>
